<?xml version="1.0" standalone="no"?>
<!DOCTYPE svg PUBLIC "-//W3C//DTD SVG 20010904//EN"
 "http://www.w3.org/TR/2001/REC-SVG-20010904/DTD/svg10.dtd">
<svg version="1.0" xmlns="http://www.w3.org/2000/svg"
 width="64.000000pt" height="64.000000pt" viewBox="0 0 64.000000 64.000000"
 preserveAspectRatio="xMidYMid meet">

<g transform="translate(0.000000,64.000000) scale(0.100000,-0.100000)"
fill="#000000" stroke="none">
<path d="M90 394 l0 -166 -35 -41 c-25 -28 -35 -50 -33 -67 l3 -25 295 0 295
0 3 23 c2 15 -9 38 -32 67 l-36 43 0 166 0 166 -230 0 -230 0 0 -166z m450
-17 c0 -161 0 -164 25 -187 14 -13 25 -27 25 -32 0 -4 -45 -8 -100 -8 -93 0
-100 1 -100 20 0 18 -7 20 -69 20 -60 0 -69 -2 -74 -20 -5 -18 -14 -20 -108
-20 l-103 0 34 35 34 35 175 2 176 3 -177 2 -178 3 0 155 0 155 220 0 220 0 0
-163z m-160 -217 c0 -6 -27 -10 -60 -10 -33 0 -60 4 -60 10 0 6 27 10 60 10
33 0 60 -4 60 -10z m230 -40 c0 -6 -103 -10 -290 -10 -187 0 -290 4 -290 10 0
6 103 10 290 10 187 0 290 -4 290 -10z"/>
<path d="M160 485 c-13 -14 -19 -25 -13 -25 12 0 48 38 41 45 -2 3 -15 -6 -28
-20z"/>
<path d="M190 455 c-30 -30 -50 -55 -44 -55 13 0 109 98 103 105 -3 2 -30 -20
-59 -50z"/>
</g>
</svg>
