<?xml version="1.0" encoding="UTF-8"?>
<svg xmlns="http://www.w3.org/2000/svg" xmlns:xlink="http://www.w3.org/1999/xlink" width="16px" height="16px" viewBox="0 0 16 16" version="1.1">
<g id="surface1">
<path style=" stroke:none;fill-rule:nonzero;fill:rgb(6.27451%,9.411765%,12.54902%);fill-opacity:1;" d="M 15 7.5 C 14.894531 7.5 14.792969 7.464844 14.710938 7.40625 L 8 2.613281 L 1.289062 7.40625 C 1.066406 7.539062 0.78125 7.476562 0.628906 7.265625 C 0.476562 7.054688 0.511719 6.765625 0.710938 6.59375 L 7.710938 1.59375 C 7.882812 1.472656 8.117188 1.472656 8.289062 1.59375 L 15.289062 6.59375 C 15.464844 6.722656 15.539062 6.945312 15.472656 7.152344 C 15.40625 7.359375 15.214844 7.5 15 7.5 Z M 15 7.5 "/>
<path style=" stroke:none;fill-rule:nonzero;fill:rgb(6.27451%,9.411765%,12.54902%);fill-opacity:1;" d="M 2.5 4.5 C 2.222656 4.5 2 4.277344 2 4 L 2 2 C 2 1.722656 2.222656 1.5 2.5 1.5 L 4.5 1.5 C 4.777344 1.5 5 1.722656 5 2 C 5 2.277344 4.777344 2.5 4.5 2.5 L 3 2.5 L 3 4 C 3 4.277344 2.777344 4.5 2.5 4.5 Z M 2.5 4.5 "/>
<path style=" stroke:none;fill-rule:nonzero;fill:rgb(6.27451%,9.411765%,12.54902%);fill-opacity:1;" d="M 12.5 14.5 L 10 14.5 C 9.722656 14.5 9.5 14.277344 9.5 14 L 9.5 10.5 L 6.5 10.5 L 6.5 14 C 6.5 14.277344 6.277344 14.5 6 14.5 L 3.5 14.5 C 2.671875 14.5 2 13.828125 2 13 L 2 8 C 2 7.722656 2.222656 7.5 2.5 7.5 C 2.777344 7.5 3 7.722656 3 8 L 3 13 C 3 13.277344 3.222656 13.5 3.5 13.5 L 5.5 13.5 L 5.5 10 C 5.5 9.722656 5.722656 9.5 6 9.5 L 10 9.5 C 10.277344 9.5 10.5 9.722656 10.5 10 L 10.5 13.5 L 12.5 13.5 C 12.777344 13.5 13 13.277344 13 13 L 13 8 C 13 7.722656 13.222656 7.5 13.5 7.5 C 13.777344 7.5 14 7.722656 14 8 L 14 13 C 14 13.828125 13.328125 14.5 12.5 14.5 Z M 12.5 14.5 "/>
</g>
</svg>
