<?xml version="1.0" standalone="no"?>
<!DOCTYPE svg PUBLIC "-//W3C//DTD SVG 20010904//EN"
 "http://www.w3.org/TR/2001/REC-SVG-20010904/DTD/svg10.dtd">
<svg version="1.0" xmlns="http://www.w3.org/2000/svg"
 width="64.000000pt" height="64.000000pt" viewBox="0 0 64.000000 64.000000"
 preserveAspectRatio="xMidYMid meet">

<g transform="translate(0.000000,64.000000) scale(0.100000,-0.100000)"
fill="#000000" stroke="none">
<path d="M160 590 c-19 -19 -20 -33 -20 -274 l0 -255 26 -20 c15 -12 38 -21
53 -20 l26 1 -29 8 c-67 20 -66 18 -66 287 0 230 1 244 20 263 12 12 33 20 54
20 28 0 35 -4 38 -22 3 -21 9 -23 58 -23 49 0 55 2 58 23 3 18 10 22 41 22 70
0 71 -5 71 -281 0 -196 -3 -249 -14 -265 -12 -15 -31 -20 -103 -25 l-88 -6 82
-1 c74 -2 85 0 110 22 l28 24 0 250 c0 317 15 292 -182 292 -130 0 -145 -2
-163 -20z"/>
<path d="M215 480 c-10 -11 -14 -20 -8 -20 5 0 18 9 28 20 10 11 14 20 8 20
-5 0 -18 -9 -28 -20z"/>
<path d="M245 448 l-50 -53 53 50 c48 46 57 55 49 55 -1 0 -25 -24 -52 -52z"/>
<path d="M307 123 c-15 -14 -7 -43 12 -43 23 0 34 23 18 39 -13 13 -21 14 -30
4z"/>
</g>
</svg>
